{
	"asset":{
		"generator":"Khronos glTF Blender I/O v4.2.57",
		"version":"2.0"
	},
	"scene":0,
	"scenes":[
		{
			"name":"Scene",
			"nodes":[
				0
			]
		}
	],
	"nodes":[
		{
			"mesh":0,
			"name":"Mesh_0"
		}
	],
	"materials":[
		{
			"doubleSided":true,
			"name":"Material_0",
			"pbrMetallicRoughness":{
				"baseColorTexture":{
					"index":0
				},
				"metallicFactor":0,
				"roughnessFactor":0.800000011920929
			}
		}
	],
	"meshes":[
		{
			"name":"Mesh_0",
			"primitives":[
				{
					"attributes":{
						"POSITION":0,
						"NORMAL":1,
						"TEXCOORD_0":2
					},
					"indices":3,
					"material":0
				}
			]
		}
	],
	"textures":[
		{
			"sampler":0,
			"source":0
		}
	],
	"images":[
		{
			"mimeType":"image/jpeg",
			"name":"bugbud",
			"uri":"bugbud.jpg"
		}
	],
	"accessors":[
		{
			"bufferView":0,
			"componentType":5126,
			"count":29577,
			"max":[
				0.9985191226005554,
				0.9819657802581787,
				0.8534462451934814
			],
			"min":[
				-1.0056999921798706,
				-0.9630112648010254,
				-0.8587563037872314
			],
			"type":"VEC3"
		},
		{
			"bufferView":1,
			"componentType":5126,
			"count":29577,
			"type":"VEC3"
		},
		{
			"bufferView":2,
			"componentType":5126,
			"count":29577,
			"type":"VEC2"
		},
		{
			"bufferView":3,
			"componentType":5123,
			"count":149094,
			"type":"SCALAR"
		}
	],
	"bufferViews":[
		{
			"buffer":0,
			"byteLength":354924,
			"byteOffset":0,
			"target":34962
		},
		{
			"buffer":0,
			"byteLength":354924,
			"byteOffset":354924,
			"target":34962
		},
		{
			"buffer":0,
			"byteLength":236616,
			"byteOffset":709848,
			"target":34962
		},
		{
			"buffer":0,
			"byteLength":298188,
			"byteOffset":946464,
			"target":34963
		}
	],
	"samplers":[
		{
			"magFilter":9729,
			"minFilter":9987
		}
	],
	"buffers":[
		{
			"byteLength":1244652,
			"uri":"bugbud.bin"
		}
	]
}
