{
	"asset":{
		"generator":"Khronos glTF Blender I/O v4.2.57",
		"version":"2.0"
	},
	"scene":0,
	"scenes":[
		{
			"name":"Scene",
			"nodes":[
				0
			]
		}
	],
	"nodes":[
		{
			"mesh":0,
			"name":"Mesh_0"
		}
	],
	"materials":[
		{
			"doubleSided":true,
			"name":"Material_0",
			"pbrMetallicRoughness":{
				"baseColorTexture":{
					"index":0
				},
				"metallicFactor":0,
				"roughnessFactor":0.800000011920929
			}
		}
	],
	"meshes":[
		{
			"name":"Mesh_0",
			"primitives":[
				{
					"attributes":{
						"POSITION":0,
						"NORMAL":1,
						"TEXCOORD_0":2
					},
					"indices":3,
					"material":0
				}
			]
		}
	],
	"textures":[
		{
			"sampler":0,
			"source":0
		}
	],
	"images":[
		{
			"mimeType":"image/jpeg",
			"name":"pen1",
			"uri":"pen1.jpg"
		}
	],
	"accessors":[
		{
			"bufferView":0,
			"componentType":5126,
			"count":22168,
			"max":[
				0.8846381306648254,
				1.0010236501693726,
				0.920884370803833
			],
			"min":[
				-0.8856676816940308,
				-1.0010989904403687,
				-0.8387320637702942
			],
			"type":"VEC3"
		},
		{
			"bufferView":1,
			"componentType":5126,
			"count":22168,
			"type":"VEC3"
		},
		{
			"bufferView":2,
			"componentType":5126,
			"count":22168,
			"type":"VEC2"
		},
		{
			"bufferView":3,
			"componentType":5123,
			"count":112002,
			"type":"SCALAR"
		}
	],
	"bufferViews":[
		{
			"buffer":0,
			"byteLength":266016,
			"byteOffset":0,
			"target":34962
		},
		{
			"buffer":0,
			"byteLength":266016,
			"byteOffset":266016,
			"target":34962
		},
		{
			"buffer":0,
			"byteLength":177344,
			"byteOffset":532032,
			"target":34962
		},
		{
			"buffer":0,
			"byteLength":224004,
			"byteOffset":709376,
			"target":34963
		}
	],
	"samplers":[
		{
			"magFilter":9729,
			"minFilter":9987
		}
	],
	"buffers":[
		{
			"byteLength":933380,
			"uri":"pen1.bin"
		}
	]
}
