{
	"asset":{
		"generator":"Khronos glTF Blender I/O v4.2.57",
		"version":"2.0"
	},
	"scene":0,
	"scenes":[
		{
			"name":"Scene",
			"nodes":[
				0
			]
		}
	],
	"nodes":[
		{
			"mesh":0,
			"name":"Mesh_0"
		}
	],
	"materials":[
		{
			"doubleSided":true,
			"name":"Material_0",
			"pbrMetallicRoughness":{
				"baseColorTexture":{
					"index":0
				},
				"roughnessFactor":0.7236363887786865
			}
		}
	],
	"meshes":[
		{
			"name":"Mesh_0",
			"primitives":[
				{
					"attributes":{
						"POSITION":0,
						"NORMAL":1,
						"TEXCOORD_0":2
					},
					"indices":3,
					"material":0
				}
			]
		}
	],
	"textures":[
		{
			"sampler":0,
			"source":0
		}
	],
	"images":[
		{
			"mimeType":"image/jpeg",
			"name":"pup1image",
			"uri":"pup1.jpg"
		}
	],
	"accessors":[
		{
			"bufferView":0,
			"componentType":5126,
			"count":25686,
			"max":[
				0.9877746105194092,
				0.991282045841217,
				0.9977259635925293
			],
			"min":[
				-0.9918366074562073,
				-0.99676513671875,
				-1.0010737180709839
			],
			"type":"VEC3"
		},
		{
			"bufferView":1,
			"componentType":5126,
			"count":25686,
			"type":"VEC3"
		},
		{
			"bufferView":2,
			"componentType":5126,
			"count":25686,
			"type":"VEC2"
		},
		{
			"bufferView":3,
			"componentType":5123,
			"count":129846,
			"type":"SCALAR"
		}
	],
	"bufferViews":[
		{
			"buffer":0,
			"byteLength":308232,
			"byteOffset":0,
			"target":34962
		},
		{
			"buffer":0,
			"byteLength":308232,
			"byteOffset":308232,
			"target":34962
		},
		{
			"buffer":0,
			"byteLength":205488,
			"byteOffset":616464,
			"target":34962
		},
		{
			"buffer":0,
			"byteLength":259692,
			"byteOffset":821952,
			"target":34963
		}
	],
	"samplers":[
		{
			"magFilter":9729,
			"minFilter":9987
		}
	],
	"buffers":[
		{
			"byteLength":1081644,
			"uri":"pup1.bin"
		}
	]
}
