{
	"asset":{
		"generator":"Khronos glTF Blender I/O v4.2.57",
		"version":"2.0"
	},
	"scene":0,
	"scenes":[
		{
			"name":"Scene",
			"nodes":[
				0
			]
		}
	],
	"nodes":[
		{
			"mesh":0,
			"name":"Mesh_0"
		}
	],
	"materials":[
		{
			"doubleSided":true,
			"name":"Material_0",
			"pbrMetallicRoughness":{
				"baseColorTexture":{
					"index":0
				},
				"metallicFactor":0,
				"roughnessFactor":0.800000011920929
			}
		}
	],
	"meshes":[
		{
			"name":"Mesh_0",
			"primitives":[
				{
					"attributes":{
						"POSITION":0,
						"NORMAL":1,
						"TEXCOORD_0":2
					},
					"indices":3,
					"material":0
				}
			]
		}
	],
	"textures":[
		{
			"sampler":0,
			"source":0
		}
	],
	"images":[
		{
			"mimeType":"image/jpeg",
			"name":"pup2image",
			"uri":"pup2.jpg"
		}
	],
	"accessors":[
		{
			"bufferView":0,
			"componentType":5126,
			"count":30268,
			"max":[
				0.9940599203109741,
				0.9899315237998962,
				0.9254276156425476
			],
			"min":[
				-0.9950326681137085,
				-0.997421383857727,
				-0.9369930624961853
			],
			"type":"VEC3"
		},
		{
			"bufferView":1,
			"componentType":5126,
			"count":30268,
			"type":"VEC3"
		},
		{
			"bufferView":2,
			"componentType":5126,
			"count":30268,
			"type":"VEC2"
		},
		{
			"bufferView":3,
			"componentType":5123,
			"count":149994,
			"type":"SCALAR"
		}
	],
	"bufferViews":[
		{
			"buffer":0,
			"byteLength":363216,
			"byteOffset":0,
			"target":34962
		},
		{
			"buffer":0,
			"byteLength":363216,
			"byteOffset":363216,
			"target":34962
		},
		{
			"buffer":0,
			"byteLength":242144,
			"byteOffset":726432,
			"target":34962
		},
		{
			"buffer":0,
			"byteLength":299988,
			"byteOffset":968576,
			"target":34963
		}
	],
	"samplers":[
		{
			"magFilter":9729,
			"minFilter":9987
		}
	],
	"buffers":[
		{
			"byteLength":1268564,
			"uri":"pup2.bin"
		}
	]
}
