{
	"asset":{
		"generator":"Khronos glTF Blender I/O v4.2.57",
		"version":"2.0"
	},
	"scene":0,
	"scenes":[
		{
			"name":"Scene",
			"nodes":[
				0
			]
		}
	],
	"nodes":[
		{
			"mesh":0,
			"name":"Mesh_0"
		}
	],
	"materials":[
		{
			"doubleSided":true,
			"name":"Material_0",
			"pbrMetallicRoughness":{
				"baseColorTexture":{
					"index":0
				},
				"metallicFactor":0,
				"roughnessFactor":0.800000011920929
			}
		}
	],
	"meshes":[
		{
			"name":"Mesh_0",
			"primitives":[
				{
					"attributes":{
						"POSITION":0,
						"NORMAL":1,
						"TEXCOORD_0":2
					},
					"indices":3,
					"material":0
				}
			]
		}
	],
	"textures":[
		{
			"sampler":0,
			"source":0
		}
	],
	"images":[
		{
			"mimeType":"image/jpeg",
			"name":"spider1",
			"uri":"spider1.jpg"
		}
	],
	"accessors":[
		{
			"bufferView":0,
			"componentType":5126,
			"count":28872,
			"max":[
				0.9280052185058594,
				0.9072948098182678,
				0.8400959968566895
			],
			"min":[
				-0.9318525791168213,
				-0.9852190017700195,
				-1.0010390281677246
			],
			"type":"VEC3"
		},
		{
			"bufferView":1,
			"componentType":5126,
			"count":28872,
			"type":"VEC3"
		},
		{
			"bufferView":2,
			"componentType":5126,
			"count":28872,
			"type":"VEC2"
		},
		{
			"bufferView":3,
			"componentType":5123,
			"count":130182,
			"type":"SCALAR"
		}
	],
	"bufferViews":[
		{
			"buffer":0,
			"byteLength":346464,
			"byteOffset":0,
			"target":34962
		},
		{
			"buffer":0,
			"byteLength":346464,
			"byteOffset":346464,
			"target":34962
		},
		{
			"buffer":0,
			"byteLength":230976,
			"byteOffset":692928,
			"target":34962
		},
		{
			"buffer":0,
			"byteLength":260364,
			"byteOffset":923904,
			"target":34963
		}
	],
	"samplers":[
		{
			"magFilter":9729,
			"minFilter":9987
		}
	],
	"buffers":[
		{
			"byteLength":1184268,
			"uri":"spider1.bin"
		}
	]
}
