{
	"asset":{
		"generator":"Khronos glTF Blender I/O v4.2.57",
		"version":"2.0"
	},
	"scene":0,
	"scenes":[
		{
			"name":"Scene",
			"nodes":[
				0
			]
		}
	],
	"nodes":[
		{
			"mesh":0,
			"name":"Mesh_0"
		}
	],
	"materials":[
		{
			"doubleSided":true,
			"name":"Material_0",
			"pbrMetallicRoughness":{
				"baseColorTexture":{
					"index":0
				},
				"metallicFactor":0,
				"roughnessFactor":0.800000011920929
			}
		}
	],
	"meshes":[
		{
			"name":"Mesh_0",
			"primitives":[
				{
					"attributes":{
						"POSITION":0,
						"NORMAL":1,
						"TEXCOORD_0":2
					},
					"indices":3,
					"material":0
				}
			]
		}
	],
	"textures":[
		{
			"sampler":0,
			"source":0
		}
	],
	"images":[
		{
			"mimeType":"image/jpeg",
			"name":"tiger1",
			"uri":"tiger1.jpg"
		}
	],
	"accessors":[
		{
			"bufferView":0,
			"componentType":5126,
			"count":29397,
			"max":[
				1.002032995223999,
				0.9882110357284546,
				0.9689602851867676
			],
			"min":[
				-0.9316310882568359,
				-0.9918985962867737,
				-0.9735188484191895
			],
			"type":"VEC3"
		},
		{
			"bufferView":1,
			"componentType":5126,
			"count":29397,
			"type":"VEC3"
		},
		{
			"bufferView":2,
			"componentType":5126,
			"count":29397,
			"type":"VEC2"
		},
		{
			"bufferView":3,
			"componentType":5123,
			"count":149994,
			"type":"SCALAR"
		}
	],
	"bufferViews":[
		{
			"buffer":0,
			"byteLength":352764,
			"byteOffset":0,
			"target":34962
		},
		{
			"buffer":0,
			"byteLength":352764,
			"byteOffset":352764,
			"target":34962
		},
		{
			"buffer":0,
			"byteLength":235176,
			"byteOffset":705528,
			"target":34962
		},
		{
			"buffer":0,
			"byteLength":299988,
			"byteOffset":940704,
			"target":34963
		}
	],
	"samplers":[
		{
			"magFilter":9729,
			"minFilter":9987
		}
	],
	"buffers":[
		{
			"byteLength":1240692,
			"uri":"tiger1.bin"
		}
	]
}
