{
	"asset":{
		"generator":"Khronos glTF Blender I/O v4.2.57",
		"version":"2.0"
	},
	"scene":0,
	"scenes":[
		{
			"name":"Scene",
			"nodes":[
				0
			]
		}
	],
	"nodes":[
		{
			"mesh":0,
			"name":"Mesh_0"
		}
	],
	"materials":[
		{
			"doubleSided":true,
			"name":"Material_0",
			"pbrMetallicRoughness":{
				"baseColorTexture":{
					"index":0
				},
				"metallicFactor":0,
				"roughnessFactor":0.800000011920929
			}
		}
	],
	"meshes":[
		{
			"name":"Mesh_0",
			"primitives":[
				{
					"attributes":{
						"POSITION":0,
						"NORMAL":1,
						"TEXCOORD_0":2
					},
					"indices":3,
					"material":0
				}
			]
		}
	],
	"textures":[
		{
			"sampler":0,
			"source":0
		}
	],
	"images":[
		{
			"mimeType":"image/jpeg",
			"name":"tiger2",
			"uri":"tiger2.jpg"
		}
	],
	"accessors":[
		{
			"bufferView":0,
			"componentType":5126,
			"count":29242,
			"max":[
				1.0243860483169556,
				0.9946000576019287,
				0.9785814881324768
			],
			"min":[
				-0.9065633416175842,
				-0.98955899477005,
				-0.9748806953430176
			],
			"type":"VEC3"
		},
		{
			"bufferView":1,
			"componentType":5126,
			"count":29242,
			"type":"VEC3"
		},
		{
			"bufferView":2,
			"componentType":5126,
			"count":29242,
			"type":"VEC2"
		},
		{
			"bufferView":3,
			"componentType":5123,
			"count":145446,
			"type":"SCALAR"
		}
	],
	"bufferViews":[
		{
			"buffer":0,
			"byteLength":350904,
			"byteOffset":0,
			"target":34962
		},
		{
			"buffer":0,
			"byteLength":350904,
			"byteOffset":350904,
			"target":34962
		},
		{
			"buffer":0,
			"byteLength":233936,
			"byteOffset":701808,
			"target":34962
		},
		{
			"buffer":0,
			"byteLength":290892,
			"byteOffset":935744,
			"target":34963
		}
	],
	"samplers":[
		{
			"magFilter":9729,
			"minFilter":9987
		}
	],
	"buffers":[
		{
			"byteLength":1226636,
			"uri":"tiger2.bin"
		}
	]
}
